<svg version="1.1" xmlns="http://www.w3.org/2000/svg" xmlns:xlink="http://www.w3.org/1999/xlink" width="858.2333984375" height="596"><defs/><g><g><rect fill="#C0C0C0" stroke="none" x="1007" y="455" width="237.2333984375" height="86" transform="matrix(1 0 0 1 -390 -166)" fill-opacity="0.2"/></g><g><rect fill="#ffffff" stroke="none" x="1000" y="448" width="237.2333984375" height="86" transform="matrix(1 0 0 1 -390 -166)"/></g><g><path fill="none" stroke="#000000" paint-order="fill stroke markers" d=" M 610 282 L 847.2333984375 282 L 847.2333984375 368 L 610 368 L 610 282 Z Z" stroke-miterlimit="10" stroke-dasharray=""/></g><g><path fill="none" stroke="#000000" paint-order="fill stroke markers" d=" M 610 320 L 847.2333984375 320" stroke-miterlimit="10" stroke-dasharray=""/></g><g><path fill="none" stroke="#000000" paint-order="fill stroke markers" d=" M 610 330 L 847.2333984375 330" stroke-miterlimit="10" stroke-dasharray=""/></g><g><g><path fill="none" stroke="none"/><text fill="#000000" stroke="none" font-family="Arial" font-size="13px" font-style="normal" font-weight="normal" text-decoration="undefined" x="1119.11669921875" y="459.5" text-anchor="middle" dominant-baseline="central" transform="matrix(1 0 0 1 -390 -166)">«control»</text></g></g><g><g><path fill="none" stroke="none"/><text fill="#000000" stroke="none" font-family="Arial" font-size="13px" font-style="normal" font-weight="bold" text-decoration="undefined" x="1119.11669921875" y="474.5" text-anchor="middle" dominant-baseline="central" transform="matrix(1 0 0 1 -390 -166)">SignInController</text></g></g><g><g><path fill="none" stroke="none"/><text fill="#000000" stroke="none" font-family="Arial" font-size="13px" font-style="normal" font-weight="normal" text-decoration="undefined" x="1005" y="507.5" text-anchor="start" dominant-baseline="central" transform="matrix(1 0 0 1 -390 -166)">+signIn(email: String, password: String)</text></g></g><g><g><path fill="none" stroke="none"/><text fill="#000000" stroke="none" font-family="Arial" font-size="13px" font-style="normal" font-weight="normal" text-decoration="undefined" x="1005" y="522.5" text-anchor="start" dominant-baseline="central" transform="matrix(1 0 0 1 -390 -166)">+signInWithGoogle()</text></g></g><g><rect fill="#C0C0C0" stroke="none" x="983" y="191" width="165.009765625" height="131" transform="matrix(1 0 0 1 -390 -166)" fill-opacity="0.2"/></g><g><rect fill="#ffffff" stroke="none" x="976" y="184" width="165.009765625" height="131" transform="matrix(1 0 0 1 -390 -166)"/></g><g><path fill="none" stroke="#000000" paint-order="fill stroke markers" d=" M 586 18 L 751.009765625 18 L 751.009765625 149 L 586 149 L 586 18 Z Z" stroke-miterlimit="10" stroke-dasharray=""/></g><g><path fill="none" stroke="#000000" paint-order="fill stroke markers" d=" M 586 56 L 751.009765625 56" stroke-miterlimit="10" stroke-dasharray=""/></g><g><path fill="none" stroke="#000000" paint-order="fill stroke markers" d=" M 586 139 L 751.009765625 139" stroke-miterlimit="10" stroke-dasharray=""/></g><g><g><path fill="none" stroke="none"/><text fill="#000000" stroke="none" font-family="Arial" font-size="13px" font-style="normal" font-weight="normal" text-decoration="undefined" x="1059.0048828125" y="195.5" text-anchor="middle" dominant-baseline="central" transform="matrix(1 0 0 1 -390 -166)">«boundary»</text></g></g><g><g><path fill="none" stroke="none"/><text fill="#000000" stroke="none" font-family="Arial" font-size="13px" font-style="normal" font-weight="bold" text-decoration="undefined" x="1059.0048828125" y="210.5" text-anchor="middle" dominant-baseline="central" transform="matrix(1 0 0 1 -390 -166)">SignInForm</text></g></g><g><g><path fill="none" stroke="none"/><text fill="#000000" stroke="none" font-family="Arial" font-size="13px" font-style="normal" font-weight="normal" text-decoration="undefined" x="981" y="233.5" text-anchor="start" dominant-baseline="central" transform="matrix(1 0 0 1 -390 -166)">+email: TextField</text></g></g><g><g><path fill="none" stroke="none"/><text fill="#000000" stroke="none" font-family="Arial" font-size="13px" font-style="normal" font-weight="normal" text-decoration="undefined" x="981" y="248.5" text-anchor="start" dominant-baseline="central" transform="matrix(1 0 0 1 -390 -166)">+password: TextField</text></g></g><g><g><path fill="none" stroke="none"/><text fill="#000000" stroke="none" font-family="Arial" font-size="13px" font-style="normal" font-weight="normal" text-decoration="undefined" x="981" y="263.5" text-anchor="start" dominant-baseline="central" transform="matrix(1 0 0 1 -390 -166)">+signIn: Button</text></g></g><g><g><path fill="none" stroke="none"/><text fill="#000000" stroke="none" font-family="Arial" font-size="13px" font-style="normal" font-weight="normal" text-decoration="undefined" x="981" y="278.5" text-anchor="start" dominant-baseline="central" transform="matrix(1 0 0 1 -390 -166)">+goToSignUpPage: Button</text></g></g><g><g><path fill="none" stroke="none"/><text fill="#000000" stroke="none" font-family="Arial" font-size="13px" font-style="normal" font-weight="normal" text-decoration="undefined" x="981" y="293.5" text-anchor="start" dominant-baseline="central" transform="matrix(1 0 0 1 -390 -166)">+signInWithGoogle: Button</text></g></g><g><rect fill="#C0C0C0" stroke="none" x="559" y="183" width="157.8115234375" height="146" transform="matrix(1 0 0 1 -390 -166)" fill-opacity="0.2"/></g><g><rect fill="#ffffff" stroke="none" x="552" y="176" width="157.8115234375" height="146" transform="matrix(1 0 0 1 -390 -166)"/></g><g><path fill="none" stroke="#000000" paint-order="fill stroke markers" d=" M 162 10 L 319.8115234375 10 L 319.8115234375 156 L 162 156 L 162 10 Z Z" stroke-miterlimit="10" stroke-dasharray=""/></g><g><path fill="none" stroke="#000000" paint-order="fill stroke markers" d=" M 162 48 L 319.8115234375 48" stroke-miterlimit="10" stroke-dasharray=""/></g><g><path fill="none" stroke="#000000" paint-order="fill stroke markers" d=" M 162 146 L 319.8115234375 146" stroke-miterlimit="10" stroke-dasharray=""/></g><g><g><path fill="none" stroke="none"/><text fill="#000000" stroke="none" font-family="Arial" font-size="13px" font-style="normal" font-weight="normal" text-decoration="undefined" x="631.40576171875" y="187.5" text-anchor="middle" dominant-baseline="central" transform="matrix(1 0 0 1 -390 -166)">«boundary»</text></g></g><g><g><path fill="none" stroke="none"/><text fill="#000000" stroke="none" font-family="Arial" font-size="13px" font-style="normal" font-weight="bold" text-decoration="undefined" x="631.40576171875" y="202.5" text-anchor="middle" dominant-baseline="central" transform="matrix(1 0 0 1 -390 -166)">SignUpForm</text></g></g><g><g><path fill="none" stroke="none"/><text fill="#000000" stroke="none" font-family="Arial" font-size="13px" font-style="normal" font-weight="normal" text-decoration="undefined" x="557" y="225.5" text-anchor="start" dominant-baseline="central" transform="matrix(1 0 0 1 -390 -166)">+firstName: TextField</text></g></g><g><g><path fill="none" stroke="none"/><text fill="#000000" stroke="none" font-family="Arial" font-size="13px" font-style="normal" font-weight="normal" text-decoration="undefined" x="557" y="240.5" text-anchor="start" dominant-baseline="central" transform="matrix(1 0 0 1 -390 -166)">+lastName: TextField</text></g></g><g><g><path fill="none" stroke="none"/><text fill="#000000" stroke="none" font-family="Arial" font-size="13px" font-style="normal" font-weight="normal" text-decoration="undefined" x="557" y="255.5" text-anchor="start" dominant-baseline="central" transform="matrix(1 0 0 1 -390 -166)">+email: TextField</text></g></g><g><g><path fill="none" stroke="none"/><text fill="#000000" stroke="none" font-family="Arial" font-size="13px" font-style="normal" font-weight="normal" text-decoration="undefined" x="557" y="270.5" text-anchor="start" dominant-baseline="central" transform="matrix(1 0 0 1 -390 -166)">+password: TextField</text></g></g><g><g><path fill="none" stroke="none"/><text fill="#000000" stroke="none" font-family="Arial" font-size="13px" font-style="normal" font-weight="normal" text-decoration="undefined" x="557" y="285.5" text-anchor="start" dominant-baseline="central" transform="matrix(1 0 0 1 -390 -166)">+goToSignInPage: Button</text></g></g><g><g><path fill="none" stroke="none"/><text fill="#000000" stroke="none" font-family="Arial" font-size="13px" font-style="normal" font-weight="normal" text-decoration="undefined" x="557" y="300.5" text-anchor="start" dominant-baseline="central" transform="matrix(1 0 0 1 -390 -166)">+signUp: Button</text></g></g><g><rect fill="#C0C0C0" stroke="none" x="407" y="455" width="450.349609375" height="71" transform="matrix(1 0 0 1 -390 -166)" fill-opacity="0.2"/></g><g><rect fill="#ffffff" stroke="none" x="400" y="448" width="450.349609375" height="71" transform="matrix(1 0 0 1 -390 -166)"/></g><g><path fill="none" stroke="#000000" paint-order="fill stroke markers" d=" M 10 282 L 460.349609375 282 L 460.349609375 353 L 10 353 L 10 282 Z Z" stroke-miterlimit="10" stroke-dasharray=""/></g><g><path fill="none" stroke="#000000" paint-order="fill stroke markers" d=" M 10 320 L 460.349609375 320" stroke-miterlimit="10" stroke-dasharray=""/></g><g><path fill="none" stroke="#000000" paint-order="fill stroke markers" d=" M 10 330 L 460.349609375 330" stroke-miterlimit="10" stroke-dasharray=""/></g><g><g><path fill="none" stroke="none"/><text fill="#000000" stroke="none" font-family="Arial" font-size="13px" font-style="normal" font-weight="normal" text-decoration="undefined" x="625.6748046875" y="459.5" text-anchor="middle" dominant-baseline="central" transform="matrix(1 0 0 1 -390 -166)">«control»</text></g></g><g><g><path fill="none" stroke="none"/><text fill="#000000" stroke="none" font-family="Arial" font-size="13px" font-style="normal" font-weight="bold" text-decoration="undefined" x="625.6748046875" y="474.5" text-anchor="middle" dominant-baseline="central" transform="matrix(1 0 0 1 -390 -166)">SignUpController</text></g></g><g><g><path fill="none" stroke="none"/><text fill="#000000" stroke="none" font-family="Arial" font-size="13px" font-style="normal" font-weight="normal" text-decoration="undefined" x="405" y="507.5" text-anchor="start" dominant-baseline="central" transform="matrix(1 0 0 1 -390 -166)">+signUp(firstName: String, lastName: String, email: String, password: String)</text></g></g><g><path fill="none" stroke="#000000" paint-order="fill stroke markers" d=" M 321 83 L 585 83" stroke-miterlimit="10" stroke-dasharray=""/></g><g><rect fill="#C0C0C0" stroke="none" x="823" y="319" width="115.46630859375" height="71" transform="matrix(1 0 0 1 -390 -166)" fill-opacity="0.2"/></g><g><rect fill="#ffffff" stroke="none" x="816" y="312" width="115.46630859375" height="71" transform="matrix(1 0 0 1 -390 -166)"/></g><g><path fill="none" stroke="#000000" paint-order="fill stroke markers" d=" M 426 146 L 541.46630859375 146 L 541.46630859375 217 L 426 217 L 426 146 Z Z" stroke-miterlimit="10" stroke-dasharray=""/></g><g><path fill="none" stroke="#000000" paint-order="fill stroke markers" d=" M 426 184 L 541.46630859375 184" stroke-miterlimit="10" stroke-dasharray=""/></g><g><path fill="none" stroke="#000000" paint-order="fill stroke markers" d=" M 426 207 L 541.46630859375 207" stroke-miterlimit="10" stroke-dasharray=""/></g><g><g><path fill="none" stroke="none"/><text fill="#000000" stroke="none" font-family="Arial" font-size="13px" font-style="normal" font-weight="normal" text-decoration="undefined" x="874.233154296875" y="323.5" text-anchor="middle" dominant-baseline="central" transform="matrix(1 0 0 1 -390 -166)">«boundary»</text></g></g><g><g><path fill="none" stroke="none"/><text fill="#000000" stroke="none" font-family="Arial" font-size="13px" font-style="normal" font-weight="bold" text-decoration="undefined" x="874.233154296875" y="338.5" text-anchor="middle" dominant-baseline="central" transform="matrix(1 0 0 1 -390 -166)">Feedback</text></g></g><g><g><path fill="none" stroke="none"/><text fill="#000000" stroke="none" font-family="Arial" font-size="13px" font-style="normal" font-weight="normal" text-decoration="undefined" x="821" y="361.5" text-anchor="start" dominant-baseline="central" transform="matrix(1 0 0 1 -390 -166)">+message: String</text></g></g><g><path fill="none" stroke="#000000" paint-order="fill stroke markers" d=" M 425 213 L 301 281" stroke-miterlimit="10" stroke-dasharray=""/></g><g><path fill="none" stroke="#000000" paint-order="fill stroke markers" d=" M 236 281 L 238 157" stroke-miterlimit="10" stroke-dasharray=""/></g><g><path fill="none" stroke="#000000" paint-order="fill stroke markers" d=" M 717 281 L 685 150" stroke-miterlimit="10" stroke-dasharray=""/></g><g><rect fill="#C0C0C0" stroke="none" x="799" y="583" width="157.05615234375" height="176" transform="matrix(1 0 0 1 -390 -166)" fill-opacity="0.2"/></g><g><rect fill="#ffffff" stroke="none" x="792" y="576" width="157.05615234375" height="176" transform="matrix(1 0 0 1 -390 -166)"/></g><g><path fill="none" stroke="#000000" paint-order="fill stroke markers" d=" M 402 410 L 559.05615234375 410 L 559.05615234375 586 L 402 586 L 402 410 Z Z" stroke-miterlimit="10" stroke-dasharray=""/></g><g><path fill="none" stroke="#000000" paint-order="fill stroke markers" d=" M 402 448 L 559.05615234375 448" stroke-miterlimit="10" stroke-dasharray=""/></g><g><path fill="none" stroke="#000000" paint-order="fill stroke markers" d=" M 402 576 L 559.05615234375 576" stroke-miterlimit="10" stroke-dasharray=""/></g><g><g><path fill="none" stroke="none"/><text fill="#000000" stroke="none" font-family="Arial" font-size="13px" font-style="normal" font-weight="normal" text-decoration="undefined" x="871.028076171875" y="587.5" text-anchor="middle" dominant-baseline="central" transform="matrix(1 0 0 1 -390 -166)">«entity»</text></g></g><g><g><path fill="none" stroke="none"/><text fill="#000000" stroke="none" font-family="Arial" font-size="13px" font-style="normal" font-weight="bold" text-decoration="undefined" x="871.028076171875" y="602.5" text-anchor="middle" dominant-baseline="central" transform="matrix(1 0 0 1 -390 -166)">User</text></g></g><g><g><path fill="none" stroke="none"/><text fill="#000000" stroke="none" font-family="Arial" font-size="13px" font-style="normal" font-weight="normal" text-decoration="undefined" x="797" y="625.5" text-anchor="start" dominant-baseline="central" transform="matrix(1 0 0 1 -390 -166)">+firstName: String</text></g></g><g><g><path fill="none" stroke="none"/><text fill="#000000" stroke="none" font-family="Arial" font-size="13px" font-style="normal" font-weight="normal" text-decoration="undefined" x="797" y="640.5" text-anchor="start" dominant-baseline="central" transform="matrix(1 0 0 1 -390 -166)">+lastName: String</text></g></g><g><g><path fill="none" stroke="none"/><text fill="#000000" stroke="none" font-family="Arial" font-size="13px" font-style="normal" font-weight="normal" text-decoration="undefined" x="797" y="655.5" text-anchor="start" dominant-baseline="central" transform="matrix(1 0 0 1 -390 -166)">+email: String</text></g></g><g><g><path fill="none" stroke="none"/><text fill="#000000" stroke="none" font-family="Arial" font-size="13px" font-style="normal" font-weight="normal" text-decoration="undefined" x="797" y="670.5" text-anchor="start" dominant-baseline="central" transform="matrix(1 0 0 1 -390 -166)">+password: String</text></g></g><g><g><path fill="none" stroke="none"/><text fill="#000000" stroke="none" font-family="Arial" font-size="13px" font-style="normal" font-weight="normal" text-decoration="undefined" x="797" y="685.5" text-anchor="start" dominant-baseline="central" transform="matrix(1 0 0 1 -390 -166)">+bio: String</text></g></g><g><g><path fill="none" stroke="none"/><text fill="#000000" stroke="none" font-family="Arial" font-size="13px" font-style="normal" font-weight="normal" text-decoration="undefined" x="797" y="700.5" text-anchor="start" dominant-baseline="central" transform="matrix(1 0 0 1 -390 -166)">+webSiteLink: String</text></g></g><g><g><path fill="none" stroke="none"/><text fill="#000000" stroke="none" font-family="Arial" font-size="13px" font-style="normal" font-weight="normal" text-decoration="undefined" x="797" y="715.5" text-anchor="start" dominant-baseline="central" transform="matrix(1 0 0 1 -390 -166)">+profileImagePath: String</text></g></g><g><g><path fill="none" stroke="none"/><text fill="#000000" stroke="none" font-family="Arial" font-size="13px" font-style="normal" font-weight="normal" text-decoration="undefined" x="797" y="730.5" text-anchor="start" dominant-baseline="central" transform="matrix(1 0 0 1 -390 -166)">+socialLink: String[]</text></g></g><g><path fill="none" stroke="#000000" paint-order="fill stroke markers" d=" M 285 354 L 401 440" stroke-miterlimit="10" stroke-dasharray=""/></g><g><path fill="none" stroke="#000000" paint-order="fill stroke markers" d=" M 560 442 L 665 369" stroke-miterlimit="10" stroke-dasharray=""/></g><g><path fill="none" stroke="#000000" paint-order="fill stroke markers" d=" M 653 281 L 542 216" stroke-miterlimit="10" stroke-dasharray=""/></g></g></svg>